<!-- Generator: Gravit.io --><svg xmlns="http://www.w3.org/2000/svg" style="isolation:isolate" viewBox="0 0 145 145" width="145" height="145" xmlns:xlink="http://www.w3.org/1999/xlink"><defs><clipPath id="_clipPath_UMGnROvKazALqxyxvNOIk2U0qnnDi4Av"><rect width="145" height="145"/></clipPath></defs><g clip-path="url(#_clipPath_UMGnROvKazALqxyxvNOIk2U0qnnDi4Av)"><g><g><g><circle fill="rgb(5, 15, 74)" cx="72.5" cy="72.5" r="72.5" vector-effect="non-scaling-stroke"/><rect fill="rgb(5, 15, 74)" transform="matrix(1, 0, 0, 1, 0, 0)" x="0" y="72.5" width="72.5" height="72.5"/></g><g><g><line x1="51.368" y1="74.656" x2="51.368" y2="103.3"/><path fill="rgb(255, 255, 255)" d="M 51.368 106.018 C 49.867 106.018 48.65 104.8 48.65 103.3 L 48.65 74.656 C 48.65 73.152 49.867 71.936 51.368 71.936 C 52.87 71.936 54.088 73.152 54.088 74.656 L 54.088 103.3 C 54.087 104.8 52.87 106.018 51.368 106.018 Z"/></g><g><line x1="65.369" y1="74.656" x2="65.369" y2="103.3"/><path fill="rgb(255, 255, 255)" d="M 65.369 106.018 C 63.868 106.018 62.65 104.8 62.65 103.3 L 62.65 74.656 C 62.65 73.152 63.867 71.936 65.369 71.936 C 66.871 71.936 68.088 73.152 68.088 74.656 L 68.088 103.3 C 68.088 104.8 66.871 106.018 65.369 106.018 Z"/></g><g><line x1="80.417" y1="74.625" x2="80.417" y2="103.269"/><path fill="rgb(255, 255, 255)" d="M 80.417 105.988 C 78.915 105.988 77.698 104.77 77.698 103.268 L 77.698 74.625 C 77.698 73.124 78.915 71.906 80.417 71.906 C 81.92 71.906 83.138 73.123 83.138 74.625 L 83.138 103.269 C 83.138 104.771 81.92 105.988 80.417 105.988 Z"/></g><path fill="rgb(255, 255, 255)" d="M 103.543 87.141 L 96.352 87.141 C 94.849 87.141 93.632 85.923 93.632 84.422 L 93.632 65.371 C 93.632 63.869 94.849 62.652 96.352 62.652 L 103.383 62.652 C 105.362 62.652 106.588 63.466 107.266 64.15 C 108.672 65.567 108.732 67.37 108.729 67.717 L 108.729 81.669 C 108.739 82.195 108.667 84.165 107.234 85.651 C 106.579 86.33 105.404 87.141 103.543 87.141 Z M 99.07 81.702 L 103.292 81.702 C 103.292 81.7 103.292 81.699 103.292 81.698 L 103.292 68.089 L 99.07 68.089 L 99.07 81.702 L 99.07 81.702 L 99.07 81.702 Z"/><path fill="rgb(255, 255, 255)" d="M 108.846 48.919 L 101.389 48.919 C 103.1 43.407 101.928 37.175 98.345 32.944 C 94.759 28.708 89.188 26.178 83.447 26.178 C 79.338 26.178 75.597 27.468 72.714 29.778 C 69.669 25.178 63.245 22.748 57.101 22.748 C 50.046 22.748 42.935 25.973 41.1 33.071 C 39.953 32.875 38.608 32.724 37.19 32.724 C 28.734 32.724 23.687 37.884 23.344 46.879 C 23.159 51.723 24.391 55.556 27.006 58.273 C 28.365 59.686 30.055 60.715 31.994 61.367 L 31.994 109.913 C 31.994 116.576 37.415 121.996 44.077 121.996 L 87.443 121.996 C 94.106 121.996 99.527 116.576 99.527 109.913 L 99.527 100.54 C 99.527 100.54 99.528 100.541 99.529 100.541 C 99.533 100.541 99.54 100.534 99.545 100.533 L 108.847 100.537 C 115.51 100.537 120.931 95.118 120.931 88.454 L 120.931 61.002 C 120.93 54.34 115.509 48.919 108.846 48.919 Z M 29.381 47.108 C 29.601 41.338 32.008 38.765 37.189 38.765 C 40.083 38.765 42.643 39.64 42.659 39.647 C 43.585 39.974 44.61 39.831 45.41 39.265 C 46.211 38.699 46.686 37.779 46.686 36.799 C 46.686 29.175 55.361 28.789 57.1 28.789 C 62.571 28.789 68.477 31.486 68.477 35.844 C 68.477 37.226 69.415 38.431 70.754 38.772 C 72.092 39.112 73.493 38.501 74.153 37.287 C 75.903 34.067 79.29 32.22 83.446 32.22 C 87.433 32.22 91.279 33.951 93.733 36.849 C 95.498 38.932 97.036 42.932 95.553 47.352 C 94.183 51.441 91.43 53.348 86.882 53.348 C 81.713 53.348 76.44 50.794 76.393 50.77 C 74.959 50.063 73.224 50.593 72.431 51.982 C 72.395 52.043 68.859 58.114 62.328 58.329 C 54.935 58.573 52.829 53.223 52.628 52.655 C 52.264 51.54 51.286 50.737 50.122 50.595 C 49.999 50.58 49.878 50.573 49.757 50.573 C 48.724 50.573 47.75 51.104 47.195 51.995 C 45.973 53.955 41.556 56.138 37.172 56.138 C 35.423 56.138 32.995 55.782 31.359 54.081 C 29.926 52.594 29.261 50.249 29.381 47.108 Z M 114.888 88.453 C 114.888 91.778 112.168 94.495 108.846 94.495 L 99.527 94.495 C 96.205 94.495 93.485 97.214 93.485 100.536 L 93.485 109.912 C 93.485 113.234 90.766 115.953 87.443 115.953 L 44.077 115.953 C 40.754 115.953 38.035 113.234 38.035 109.912 L 38.035 62.144 C 42.061 61.965 46.152 60.566 49.095 58.475 C 51.22 61.217 55.126 64.379 61.832 64.379 C 62.061 64.379 62.292 64.375 62.528 64.367 C 69.357 64.143 73.889 59.909 76.104 57.2 C 78.578 58.138 82.667 59.389 86.883 59.389 C 91.619 59.389 95.466 57.783 98.154 54.783 L 98.154 54.961 L 108.846 54.961 C 112.168 54.961 114.888 57.679 114.888 61.003 L 114.888 88.453 L 114.888 88.453 L 114.888 88.453 Z"/></g></g></g></g></svg>